<?xml version="1.0"?>
<svg xmlns="http://www.w3.org/2000/svg" xmlns:xlink="http://www.w3.org/1999/xlink" version="1.1" viewBox="0 0 192 192" width="48px" height="48px"><g fill="none" fill-rule="nonzero" stroke="none" stroke-width="1" stroke-linecap="butt" stroke-linejoin="miter" stroke-miterlimit="10" stroke-dasharray="" stroke-dashoffset="0" font-family="none" font-weight="none" font-size="none" text-anchor="none" style="mix-blend-mode: normal"><path d="M0,192v-192h192v192z" fill="none"/><g fill="#cccccc"><g id="surface1"><path d="M42,30c-6.5625,0 -12,5.4375 -12,12v108c0,6.5625 5.4375,12 12,12h108c6.5625,0 12,-5.4375 12,-12v-108c0,-6.5625 -5.4375,-12 -12,-12zM42,42h108v108h-31.125v-40.5h15.5625l2.25,-18h-17.8125v-11.625c0,-5.25 1.28906,-8.8125 8.8125,-8.8125h9.75v-16.3125c-1.66406,-0.21094 -7.42969,-0.5625 -14.0625,-0.5625c-13.82812,0 -23.25,8.32031 -23.25,23.8125v13.5h-15.75v18h15.75v40.5h-58.125z"/></g></g></g></svg>
