<?xml version="1.0"?>
<svg xmlns="http://www.w3.org/2000/svg" xmlns:xlink="http://www.w3.org/1999/xlink" viewBox="0 0 192 192" version="1.1" width="48px" height="48px"><g font-family="none" font-size="none" font-weight="none" style="mix-blend-mode: normal" fill="none" fill-rule="nonzero" stroke="none" stroke-dasharray="" stroke-dashoffset="0" stroke-linecap="butt" stroke-linejoin="miter" stroke-miterlimit="10" stroke-width="1" text-anchor="none"><path fill="none" d="M 0 192 v -192 h 192 v 192 Z"/><g fill="#cccccc"><g id="surface1"><path d="M 68.8128 30 c -21.305 0 -38.8128 17.4844 -38.8128 38.8128 v 54.375 c 0 21.3042 17.4844 38.8122 38.8128 38.8122 h 54.375 c 21.3042 0 38.8122 -17.4846 38.8122 -38.8122 v -54.375 c 0 -21.305 -17.4846 -38.8128 -38.8122 -38.8128 Z M 68.8128 42 h 54.375 c 14.8356 0 26.8122 11.9765 26.8122 26.8128 v 54.375 c 0 14.8356 -11.9766 26.8122 -26.8122 26.8122 h -54.375 c -14.8363 0 -26.8128 -11.9766 -26.8128 -26.8122 v -54.375 c 0 -14.8363 11.9765 -26.8128 26.8128 -26.8128 Z M 131.438 55.125 c -3.024 0 -5.4378 2.41404 -5.4378 5.4378 c 0 3.0234 2.4138 5.4372 5.4378 5.4372 c 3.0234 0 5.4372 -2.4138 5.4372 -5.4372 c 0 -3.02376 -2.4138 -5.4378 -5.4372 -5.4378 Z M 96 60 c -19.8048 0 -36 16.1952 -36 36 c 0 19.8048 16.1952 36 36 36 c 19.8048 0 36 -16.1952 36 -36 c 0 -19.8048 -16.1952 -36 -36 -36 Z M 96 72 c 13.3362 0 24 10.6638 24 24 c 0 13.3362 -10.6638 24 -24 24 c -13.3362 0 -24 -10.6638 -24 -24 c 0 -13.3362 10.6638 -24 24 -24 Z"/></g></g></g></svg>
