<?xml version="1.0"?>
<svg xmlns="http://www.w3.org/2000/svg" xmlns:xlink="http://www.w3.org/1999/xlink" version="1.1" viewBox="0 0 192 192" width="48px" height="48px"><g fill="none" fill-rule="nonzero" stroke="none" stroke-width="1" stroke-linecap="butt" stroke-linejoin="miter" stroke-miterlimit="10" stroke-dasharray="" stroke-dashoffset="0" font-family="none" font-weight="none" font-size="none" text-anchor="none" style="mix-blend-mode: normal"><path d="M0,192v-192h192v192z" fill="none"/><g fill="#cccccc"><g id="surface1"><path d="M54.5625,30c-13.45312,0 -24.5625,11.10938 -24.5625,24.5625v82.875c0,13.45313 11.10938,24.5625 24.5625,24.5625h82.875c13.45313,0 24.5625,-11.10937 24.5625,-24.5625v-82.875c0,-13.45312 -11.10937,-24.5625 -24.5625,-24.5625zM54.5625,42h82.875c6.96094,0 12.5625,5.60156 12.5625,12.5625v82.875c0,6.96094 -5.60156,12.5625 -12.5625,12.5625h-82.875c-6.96094,0 -12.5625,-5.60156 -12.5625,-12.5625v-82.875c0,-6.96094 5.60156,-12.5625 12.5625,-12.5625zM72.5625,63.375v65.25h27c12.32813,0 25.5,-5.36719 25.5,-20.0625c0,-11.90625 -9.28125,-14.90625 -13.3125,-15.75v-0.1875c2.78906,-1.17187 9,-5.15625 9,-14.0625c0,-9.58594 -6.46875,-15.1875 -22.6875,-15.1875zM89.25,75.375c0,0 6.21094,0 7.6875,0c6.77344,0 7.125,5.50781 7.125,6.5625c0,4.24219 -3.04687,7.125 -6.9375,7.125c-1.125,0 -7.875,0.1875 -7.875,0.1875zM89.25,100.3125c0,0 8.20313,-0.04687 9.9375,0c1.73438,0.04688 9,0.39844 9,8.0625c0,7.64063 -7.57031,8.17969 -9.1875,8.25c-1.61719,0.07031 -9.75,0 -9.75,0z"/></g></g></g></svg>
